<svg width="40" height="40" viewBox="0 0 40 40" fill="none" xmlns="http://www.w3.org/2000/svg">
<path d="M34.8167 17.55C34.1334 17.55 33.5667 16.9833 33.5667 16.3V11.5167L20 4.73333L6.43331 11.5167V16.3C6.43331 16.9833 5.86664 17.55 5.18331 17.55C4.49998 17.55 3.93331 16.9833 3.93331 16.3V10.75C3.93331 10.2833 4.20005 9.85 4.63338 9.63333L19.45 2.23333C19.8 2.04999 20.2167 2.04999 20.5667 2.23333L35.3833 9.63333C35.8 9.85 36.0834 10.2833 36.0834 10.75V16.3C36.0667 16.9833 35.5 17.55 34.8167 17.55Z" fill="white"/>
<path d="M20 37.9167C19.8 37.9167 19.6166 37.8667 19.45 37.7833L4.63338 30.3833C4.21672 30.1667 3.93331 29.7333 3.93331 29.2667V23.7167C3.93331 23.0333 4.49998 22.4667 5.18331 22.4667C5.86664 22.4667 6.43331 23.0333 6.43331 23.7167V28.5L20 35.2833L33.5667 28.5V23.7167C33.5667 23.0333 34.1334 22.4667 34.8167 22.4667C35.5 22.4667 36.0667 23.0333 36.0667 23.7167V29.2667C36.0667 29.7333 35.8 30.1667 35.3666 30.3833L20.55 37.7833C20.3834 37.8667 20.2 37.9167 20 37.9167Z" fill="white"/>
<path d="M27.4 20C27.4 15.9167 24.0833 12.6 20 12.6C15.9167 12.6 12.6 15.9167 12.6 20C12.6 23.6667 15.2834 26.7 18.7834 27.2833C18.7834 27.3333 18.7667 27.3667 18.7667 27.4V36.6667C18.7667 37.35 19.3333 37.9167 20.0167 37.9167C20.7 37.9167 21.2667 37.35 21.2667 36.6667V27.4C21.2667 27.35 21.25 27.3167 21.25 27.2833C24.7333 26.7 27.4 23.6667 27.4 20Z" fill="white"/>
</svg>
