<!-- icon666.com - MILLIONS vector ICONS FREE --><svg viewBox="0 0 64 64" xmlns="http://www.w3.org/2000/svg"><g id="Layer_63" data-name="Layer 63"><path d="m47.73 59.73-18.07-27.73 18.07-27.73a.5.5 0 0 0 -.42-.77h-10.62a.51.51 0 0 0 -.41.21l-20 28a.51.51 0 0 0 0 .58l20 28a.51.51 0 0 0 .41.21h10.62a.5.5 0 0 0 .42-.77zm-10.79-.23-19.64-27.5 19.64-27.5h9.45l-17.75 27.23a.52.52 0 0 0 0 .54l17.75 27.23z" fill="#000000" style="fill: rgb(255, 255, 255);"></path><path d="m42.2 7.27a.5.5 0 0 0 -.42-.77h-3.55a.52.52 0 0 0 -.41.21l-17.82 25a.48.48 0 0 0 0 .58l17.85 25a.52.52 0 0 0 .41.21h3.55a.51.51 0 0 0 .42-.77l-16.15-24.73z" fill="#000000" style="fill: rgb(255, 255, 255);"></path></g></svg>