<svg width="37" height="36" viewBox="0 0 37 36" fill="none" xmlns="http://www.w3.org/2000/svg">
<path d="M22.7184 25.1593V26.6392C22.7184 29.0913 20.7306 31.0791 18.2786 31.0791C15.8265 31.0791 13.8387 29.0913 13.8387 26.6392V25.1593M22.7184 25.1593H13.8387M22.7184 25.1593H28.0322C28.5983 25.1593 28.8828 25.1593 29.112 25.082C29.5499 24.9343 29.8925 24.5905 30.0402 24.1526C30.1178 23.9225 30.1178 23.6371 30.1178 23.0665C30.1178 22.8169 30.1175 22.692 30.098 22.573C30.0611 22.348 29.9738 22.1348 29.8408 21.9496C29.7706 21.8517 29.6813 21.7624 29.5053 21.5864L28.9288 21.0099C28.7428 20.8239 28.6383 20.5716 28.6383 20.3086V14.7996C28.6383 9.07807 24.0001 4.43987 18.2786 4.43988C12.5571 4.43989 7.91886 9.07809 7.91886 14.7996V20.3086C7.91886 20.5717 7.81415 20.8239 7.62815 21.0099L7.0517 21.5864C6.87513 21.7629 6.78676 21.8516 6.7164 21.9496C6.58343 22.1348 6.49536 22.348 6.45844 22.573C6.4389 22.692 6.4389 22.8169 6.4389 23.0666C6.4389 23.6372 6.4389 23.9224 6.51653 24.1525C6.66423 24.5904 7.00839 24.9343 7.44626 25.082C7.6755 25.1593 7.95884 25.1593 8.52499 25.1593H13.8387" stroke="white" stroke-width="2.95992" stroke-linecap="round" stroke-linejoin="round"/>
</svg>
