<svg xmlns="http://www.w3.org/2000/svg" version="1.1" xmlns:xlink="http://www.w3.org/1999/xlink" xmlns:svgjs="http://svgjs.dev/svgjs" width="1920" height="1080" preserveAspectRatio="none" viewBox="0 0 1920 1080"><g mask="url(&quot;#SvgjsMask1486&quot;)" fill="none"><rect width="1920" height="1080" x="0" y="0" fill="url(&quot;#SvgjsLinearGradient1487&quot;)"></rect><path d="M1920 0L1596.73 0L1920 400.88z" fill="rgba(255, 255, 255, .1)"></path><path d="M1596.73 0L1920 400.88L1920 711.88L1389.54 0z" fill="rgba(255, 255, 255, .075)"></path><path d="M1389.54 0L1920 711.88L1920 898.16L594.79 0z" fill="rgba(255, 255, 255, .05)"></path><path d="M594.79 0L1920 898.16L1920 968.93L301.28999999999996 0z" fill="rgba(255, 255, 255, .025)"></path><path d="M0 1080L273.86 1080L0 540.59z" fill="rgba(0, 0, 0, .1)"></path><path d="M0 540.59L273.86 1080L904.5600000000001 1080L0 341.13z" fill="rgba(0, 0, 0, .075)"></path><path d="M0 341.13L904.5600000000001 1080L1355.93 1080L0 276.27z" fill="rgba(0, 0, 0, .05)"></path><path d="M0 276.27L1355.93 1080L1605.0500000000002 1080L0 270.84999999999997z" fill="rgba(0, 0, 0, .025)"></path></g><defs><mask id="SvgjsMask1486"><rect width="1920" height="1080" fill="#ffffff"></rect></mask><linearGradient x1="10.94%" y1="119.44%" x2="89.06%" y2="-19.44%" gradientUnits="userSpaceOnUse" id="SvgjsLinearGradient1487"><stop stop-color="rgba(53, 60, 90, 1)" offset="0.32"></stop><stop stop-color="rgba(29, 126, 83, 1)" offset="1"></stop></linearGradient></defs></svg>