<svg width="40" height="40" viewBox="0 0 40 40" fill="none" xmlns="http://www.w3.org/2000/svg">
<path d="M33.7667 8.75C32.3833 8.75 31.2667 7.63333 31.2667 6.25C31.2667 4.86667 32.3833 3.75 33.7667 3.75H33.7833C35.1666 3.75 36.2833 4.86667 36.2833 6.25C36.2833 7.63333 35.15 8.75 33.7667 8.75Z" fill="white"/>
<path d="M6.26668 36.25C4.88335 36.25 3.76668 35.1333 3.76668 33.75C3.76668 32.3667 4.88335 31.25 6.26668 31.25H6.28331C7.66665 31.25 8.78331 32.3667 8.78331 33.75C8.78331 35.1333 7.65001 36.25 6.26668 36.25Z" fill="white"/>
<path d="M10.05 27.3333C9.63333 27.3333 9.21669 27.1167 8.98336 26.7333C7.75002 24.7167 7.08333 22.3833 7.08333 20C7.08333 12.8833 12.8833 7.08334 20 7.08334C22.35 7.08334 24.65 7.71669 26.65 8.91669C27.2333 9.26669 27.4333 10.0334 27.0833 10.6334C26.7333 11.2167 25.9667 11.4167 25.3667 11.0667C23.75 10.1 21.9 9.58334 20.0167 9.58334C14.2667 9.58334 9.60001 14.25 9.60001 20C9.60001 21.9167 10.1333 23.8 11.1333 25.4333C11.5 26.0167 11.3167 26.7833 10.7167 27.15C10.5 27.2833 10.2667 27.3333 10.05 27.3333Z" fill="white"/>
<path d="M20 32.9167C17.6 32.9167 15.2667 32.25 13.25 31.0167C12.6667 30.65 12.4833 29.8834 12.8333 29.3C13.2 28.7167 13.9667 28.5334 14.55 28.8834C16.1833 29.8834 18.0667 30.4167 20 30.4167C25.75 30.4167 30.4167 25.75 30.4167 20C30.4167 18.0833 29.8833 16.2 28.8833 14.5667C28.5166 13.9834 28.7 13.2167 29.3 12.85C29.8833 12.5 30.65 12.6667 31.0166 13.2667C32.25 15.3 32.9167 17.6167 32.9167 20.0167C32.9167 27.1167 27.1167 32.9167 20 32.9167Z" fill="white"/>
<circle cx="20" cy="20" r="7" fill="white"/>
</svg>
