<svg width="35" height="35" viewBox="0 0 35 35" fill="none" xmlns="http://www.w3.org/2000/svg">
<path d="M17.5 21.875L21.875 17.5M21.875 17.5L17.5 13.125M21.875 17.5H5.83337M13.125 10.5708V10.5003C13.125 8.86678 13.125 8.04943 13.4429 7.42552C13.7226 6.87671 14.1684 6.43084 14.7172 6.15121C15.3412 5.83331 16.1585 5.83331 17.792 5.83331H24.5003C26.1338 5.83331 26.9494 5.83331 27.5733 6.15121C28.1221 6.43084 28.5695 6.87671 28.8491 7.42552C29.1667 8.04882 29.1667 8.86518 29.1667 10.4955V24.5052C29.1667 26.1355 29.1667 26.9507 28.8491 27.574C28.5695 28.1228 28.1221 28.5694 27.5733 28.8491C26.95 29.1666 26.1348 29.1666 24.5045 29.1666H17.7872C16.1569 29.1666 15.3405 29.1666 14.7172 28.8491C14.1684 28.5694 13.7226 28.1224 13.4429 27.5735C13.125 26.9496 13.125 26.1335 13.125 24.5V24.4271" stroke="white" stroke-width="2.91667" stroke-linecap="round" stroke-linejoin="round"/>
</svg>
