<svg width="591" height="89" viewBox="0 0 591 89" fill="none" xmlns="http://www.w3.org/2000/svg">
<g style="mix-blend-mode:hard-light">
<path d="M5.83361 77.8495V42.2645L27.3013 63.8488V88H16.2175L5.83361 77.8495ZM76.6537 28.3805V58.5986H61.8363L76.6537 73.416V88H61.3696L17.6175 44.2479V37.3642H55.536V34.6808L51.3358 30.3639H15.9841L5.83361 20.2134V6.32939H54.6026L76.6537 28.3805ZM118.679 37.2475H139.213L149.013 47.1647V58.3652H111.095L118.679 66.0656V88H97.6775L87.527 77.8495V6.32939H109.578L130.696 27.4471H108.995L118.679 37.2475ZM148.313 6.32939L158.347 16.4799V37.2475H150.297L119.495 6.32939H148.313ZM166.6 34.2141H172.667L190.518 51.9483V88H176.634L166.6 77.8495V34.2141ZM180.717 6.32939L190.518 16.3632V42.1478L166.6 18.23V6.32939H180.717ZM251.034 6.32939L273.085 28.3805V88H243.334L230.266 74.9327V66.8823H251.851V37.1309L242.284 27.4471H218.949L223.266 31.764V77.8495L233.417 88H212.299L202.148 77.8495V6.32939H251.034Z" fill="#D74D4D"/>
</g>
<path d="M289.734 40.281H333.486V54.0484H284.834V45.0646L289.734 40.281ZM345.107 70.8492V38.9976L368.441 62.3321V83.0998H357.357L345.107 70.8492ZM346.507 42.2645V70.2658L357.941 81.6997H367.158V62.9155L346.507 42.2645ZM395.859 48.6814H406.826L417.327 59.1819V88.7H393.876V79.8329L345.107 31.0639V4.92932H358.407L368.441 15.1965V32.464L365.174 35.8475H377.425V22.8969L395.392 4.92932H412.543V20.9134L396.209 37.2475H384.309L395.859 48.6814ZM395.276 87.3H415.927V59.7653L406.243 50.0815H395.276L381.042 35.8475H395.742L411.143 20.3301V6.32939H395.976L378.825 23.4802V37.2475H361.908L367.158 31.9973V15.6632L357.824 6.32939H346.507V30.4806L395.276 79.2496V87.3ZM455.333 65.4822H490.685L501.185 76.0994V88H439.582L428.965 77.3828V13.9131L451.483 36.4308V61.6321L455.333 65.4822ZM440.049 86.5999H499.785V76.6828L490.218 66.8823H454.749L450.083 62.2154V36.8975L430.365 17.1799V76.9161L440.049 86.5999ZM457.083 35.8475H476.567L490.568 49.9648V58.3652H461.75L457.083 53.6983V35.8475ZM489.284 56.9652V50.5482L475.984 37.2475H458.483V53.115L462.333 56.9652H489.284ZM483.568 28.7305H451.833L435.732 12.6297V4.92932H490.685L501.185 15.5465V37.2475H491.968L483.568 28.7305ZM437.015 6.32939V12.0463L452.416 27.4471H484.151L492.551 35.8475H499.785V16.1299L490.101 6.32939H437.015ZM512.823 65.9489H560.542L582.593 88.1167H523.324L512.823 77.4995V65.9489ZM523.907 86.7166H579.326L559.959 67.349H514.223V76.9161L523.907 86.7166ZM574.659 4.92932L585.16 15.5465V74.816H577.343L562.759 60.3487H522.04L512.823 51.2482V4.92932H524.84L535.341 15.5465V35.2641L539.191 39.231H562.409V27.6804H560.075L555.409 23.0135V4.92932H574.659ZM583.76 73.416V16.1299L574.076 6.32939H556.692V22.4302L560.659 26.2804H563.809V40.5144H538.724L533.941 35.8475V16.1299L524.257 6.32939H514.223V50.6649L522.624 58.9486H563.342L577.81 73.416H583.76Z" fill="white"/>
</svg>
