<svg width="306" height="100" viewBox="0 0 306 100" fill="none" xmlns="http://www.w3.org/2000/svg">
<path fill-rule="evenodd" clip-rule="evenodd" d="M0 10C0 4.47716 4.47715 0 10 0H90C90.2643 0 90.5263 0.0102559 90.7854 0.0303914H127.693C142.278 0.0303914 153.606 4.56159 161.677 13.4824C169.748 22.4032 173.854 34.5808 173.854 50.0152C173.854 65.5912 169.748 77.7688 161.677 86.6896C159.87 88.6862 157.901 90.4558 155.768 92H306V100H127.693H113H90H88.4696H10C4.47716 100 0 95.5229 0 90V10ZM106.878 83.1496H127.693C145.676 83.1496 155.588 70.8304 155.588 50.0152C155.588 29.2 145.393 16.8808 127.693 16.8808H106.878V83.1496Z" fill="url(#paint0_linear_7_78)"/>
<path d="M198.906 73.558V59.666H204.564V84H200.332C199.826 84 199.458 83.586 199.458 83.08V81.056C197.756 83.31 195.502 84.46 192.696 84.46C186.348 84.46 183.174 81.056 183.174 74.248V59.666H188.832V73.558C188.832 77.606 189.936 79.446 193.432 79.446C196.974 79.446 198.906 77.284 198.906 73.558ZM223.485 59.206C229.879 59.206 233.053 62.656 233.053 69.602V84H227.395V70.108C227.395 66.014 226.245 64.22 222.795 64.22C219.253 64.22 217.321 66.29 217.321 70.108V84H211.617V59.666H215.895C216.309 59.666 216.769 60.034 216.769 60.54V62.564C218.471 60.31 220.725 59.206 223.485 59.206ZM242.636 56.722C240.75 56.722 239.416 55.342 239.416 53.502C239.416 51.616 240.796 50.282 242.636 50.282C244.522 50.282 245.856 51.616 245.856 53.502C245.856 55.342 244.522 56.722 242.636 56.722ZM245.488 84H239.784V59.666H245.488V84ZM262.34 84.552C258.614 84.552 255.716 83.402 253.554 81.102C251.438 78.756 250.38 75.72 250.38 71.948C250.38 68.038 251.438 64.91 253.6 62.61C255.762 60.264 258.66 59.114 262.34 59.114C268.182 59.114 272.184 62.058 273.61 67.532L269.24 68.544C268.412 68.682 267.86 68.452 267.584 67.762C266.618 65.37 264.87 64.174 262.34 64.174C258.338 64.174 256.084 67.302 256.084 71.948C256.084 76.41 258.43 79.492 262.34 79.492C264.962 79.492 266.756 78.204 267.722 75.628C267.998 74.846 268.596 74.57 269.47 74.754L273.748 75.582C272.506 81.332 268.228 84.552 262.34 84.552ZM300.908 72.132V72.96C300.908 73.466 300.494 73.834 299.988 73.834H282.278C282.968 77.284 285.222 79.492 288.672 79.492C291.248 79.492 293.18 78.204 294.1 76.226C294.376 75.812 294.744 75.674 295.204 75.812L299.942 77.376C298.286 81.838 294.192 84.552 288.672 84.552C284.946 84.552 281.956 83.402 279.702 81.102C277.494 78.756 276.39 75.72 276.39 71.902C276.39 68.084 277.494 65.002 279.748 62.656C282.002 60.31 284.946 59.114 288.672 59.114C292.398 59.114 295.342 60.31 297.55 62.702C299.804 65.094 300.908 68.222 300.908 72.132ZM288.672 64.174C285.498 64.174 283.244 65.968 282.462 69.05H294.836C294.054 66.06 291.8 64.174 288.672 64.174Z" fill="#273E4C"/>
<path d="M27.8 69H19.688V35.112H27.8V69ZM57.0451 51.432C60.2131 53.112 61.7971 55.752 61.7971 59.352C61.7971 65.304 57.5251 69 50.8051 69H33.8131V35.112H50.3251C56.8051 35.112 60.8371 38.664 60.8371 44.232C60.8371 47.352 59.5891 49.752 57.0451 51.432ZM49.1731 42.648H41.8771V48.264H49.1731C51.4291 48.264 52.6771 47.208 52.6771 45.432C52.6771 43.56 51.5251 42.648 49.1731 42.648ZM41.8771 61.368H49.6531C52.1491 61.368 53.5891 60.312 53.5891 58.248C53.5891 56.184 52.1491 55.032 49.6531 55.032H41.8771V61.368ZM78.6556 69.528C72.6076 69.528 67.9516 67.992 64.6876 64.872L68.2876 60.168C68.9116 59.4 69.6316 59.304 70.4476 59.88C72.6076 61.416 75.5836 62.184 79.3756 62.184C82.2556 62.184 84.2236 61.032 84.4156 59.256C84.6556 57.528 83.5516 56.328 81.0556 55.704L74.3836 53.784C69.0076 52.392 65.7436 48.984 65.7436 44.328C65.7436 38.328 70.7356 34.584 78.4636 34.584C81.1516 34.584 83.9836 35.256 85.7116 36.024C86.5756 36.36 87.3916 36.792 88.1596 37.224C89.6956 38.136 90.1756 38.568 90.5116 38.904L86.9596 43.56C86.3356 44.376 85.5676 44.472 84.6076 43.896C82.3036 42.456 79.9996 41.736 77.6476 41.736C75.1996 41.736 73.9516 42.504 73.8076 43.992C73.6636 45.288 74.5276 46.2 76.3036 46.68L83.4556 48.744C89.2156 50.328 92.5276 54.024 92.5276 59.256C92.5276 62.328 91.2316 64.824 88.6876 66.696C86.1436 68.568 82.8316 69.528 78.6556 69.528Z" fill="white"/>
<defs>
<linearGradient id="paint0_linear_7_78" x1="2.27988e-06" y1="100" x2="306" y2="100" gradientUnits="userSpaceOnUse">
<stop stop-color="#353C5A"/>
<stop offset="0.331822" stop-color="#5F73AC"/>
<stop offset="0.775192" stop-color="#47A67C"/>
</linearGradient>
</defs>
</svg>
