<svg width="167" height="48" viewBox="0 0 167 48" fill="none" xmlns="http://www.w3.org/2000/svg">
<path d="M91.8459 26.7792C91.8459 27.6877 91.5052 28.4827 90.8238 29.164C90.1424 29.8454 89.3474 30.1861 88.4389 30.1861H75.2979V37H71.4042V19.9653L74.8112 16.5584H71.4042V13.1514H88.4389C89.3474 13.1514 90.1424 13.4921 90.8238 14.1735C91.5052 14.8549 91.8459 15.6499 91.8459 16.5584V26.7792ZM87.9522 26.7792V16.5584H75.2979V29.6994L78.2181 26.7792H87.9522ZM104.742 37H100.848V13.1514H104.742V37ZM135.879 13.1514L126.778 37H120.451L111.544 13.1514H115.924L123.225 33.6904H124.198L131.499 13.1514H135.879ZM162.871 33.5931C162.871 34.534 162.53 35.3452 161.849 36.0266C161.2 36.6755 160.405 37 159.464 37H145.836C144.895 37 144.084 36.6755 143.402 36.0266C142.753 35.3452 142.429 34.534 142.429 33.5931V16.5584C142.429 15.6174 142.753 14.8225 143.402 14.1735C144.084 13.4921 144.895 13.1514 145.836 13.1514H159.464C160.405 13.1514 161.2 13.4921 161.849 14.1735C162.53 14.8225 162.871 15.6174 162.871 16.5584V33.5931ZM158.977 33.5931V16.5584H146.323V33.5931H158.977Z" fill="white"/>
<circle cx="23.5141" cy="23.5141" r="23.5141" transform="matrix(1 0 0 -1 0 47.0282)" fill="#D74D4D"/>
<path d="M47.4014 20.1549H44.0423V17.3556C44.0423 16.428 43.2903 15.6761 42.3627 15.6761H23.3275C22.3998 15.6761 21.6479 16.428 21.6479 17.3556V45.3486C21.6479 46.2762 22.3998 47.0282 23.3275 47.0282H42.3627C43.2903 47.0282 44.0423 46.2762 44.0423 45.3486V42.4016L49.6833 39.8839C51.698 38.9846 53 36.9779 53 34.7715V25.7535C53 22.6665 50.4885 20.1549 47.4014 20.1549ZM48.5211 34.7715C48.521 34.9877 48.4583 35.1993 48.3406 35.3807C48.2229 35.5622 48.0552 35.7057 47.8578 35.794L44.0423 37.4969V24.6338H47.4014C48.0188 24.6338 48.5211 25.1361 48.5211 25.7535V34.7715ZM36.2042 40.3099C35.5859 40.3099 35.0845 39.8085 35.0845 39.1901V23.5141C35.0845 22.8957 35.5859 22.3944 36.2042 22.3944C36.8226 22.3944 37.3239 22.8957 37.3239 23.5141V39.1901C37.3239 39.8085 36.8226 40.3099 36.2042 40.3099ZM29.4859 40.3099C28.8676 40.3099 28.3662 39.8085 28.3662 39.1901V23.5141C28.3662 22.8957 28.8676 22.3944 29.4859 22.3944C30.1043 22.3944 30.6056 22.8957 30.6056 23.5141V39.1901C30.6056 39.8085 30.1043 40.3099 29.4859 40.3099Z" fill="#78C499"/>
</svg>
