<svg width="36" height="37" viewBox="0 0 36 37" fill="none" xmlns="http://www.w3.org/2000/svg">
<path d="M14.0632 7.07267C13.6137 5.94891 12.5254 5.21204 11.315 5.21204H7.24401C5.69533 5.21204 4.43988 6.46718 4.43988 8.01586C4.43988 21.1796 15.1115 31.8513 28.2753 31.8513C29.824 31.8513 31.0791 30.5957 31.0791 29.047L31.0798 24.9753C31.0798 23.765 30.3431 22.6768 29.2194 22.2273L25.3175 20.6671C24.3081 20.2634 23.1588 20.4451 22.3236 21.1411L21.3166 21.981C20.1406 22.961 18.4101 22.8831 17.3276 21.8006L14.4921 18.9624C13.4096 17.8799 13.3296 16.1509 14.3096 14.9749L15.1493 13.9679C15.8453 13.1327 16.0287 11.9831 15.6249 10.9736L14.0632 7.07267Z" stroke="white" stroke-width="2.95992" stroke-linecap="round" stroke-linejoin="round"/>
</svg>
