<svg xmlns="http://www.w3.org/2000/svg" version="1.1" xmlns:xlink="http://www.w3.org/1999/xlink" xmlns:svgjs="http://svgjs.dev/svgjs" width="1920" height="1080" preserveAspectRatio="none" viewBox="0 0 1920 1080"><g mask="url(&quot;#SvgjsMask1968&quot;)" fill="none"><rect width="1920" height="1080" x="0" y="0" fill="url(&quot;#SvgjsLinearGradient1969&quot;)"></rect><path d="M63 1080L1143 0L1393.5 0L313.5 1080z" fill="url(&quot;#SvgjsLinearGradient1970&quot;)"></path><path d="M663.6 1080L1743.6 0L2138.1 0L1058.1 1080z" fill="url(&quot;#SvgjsLinearGradient1970&quot;)"></path><path d="M1872 1080L792 0L588 0L1668 1080z" fill="url(&quot;#SvgjsLinearGradient1971&quot;)"></path><path d="M1260.4 1080L180.4000000000001 0L-536.5999999999999 0L543.4000000000001 1080z" fill="url(&quot;#SvgjsLinearGradient1971&quot;)"></path><path d="M1334.1500877428066 1080L1920 494.1500877428066L1920 1080z" fill="url(&quot;#SvgjsLinearGradient1970&quot;)"></path><path d="M0 1080L585.8499122571934 1080L 0 494.1500877428066z" fill="url(&quot;#SvgjsLinearGradient1971&quot;)"></path></g><defs><mask id="SvgjsMask1968"><rect width="1920" height="1080" fill="#ffffff"></rect></mask><linearGradient x1="50%" y1="0%" x2="50%" y2="100%" gradientUnits="userSpaceOnUse" id="SvgjsLinearGradient1969"><stop stop-color="rgba(24, 32, 40, 1)" offset="0"></stop><stop stop-color="rgba(80, 89, 100, 1)" offset="0.35"></stop><stop stop-color="rgba(142, 145, 152, 1)" offset="0.69"></stop><stop stop-color="rgba(240, 232, 230, 1)" offset="1"></stop></linearGradient><linearGradient x1="0%" y1="100%" x2="100%" y2="0%" id="SvgjsLinearGradient1970"><stop stop-color="rgba(240, 232, 230, 0.09)" offset="0"></stop><stop stop-opacity="0" stop-color="rgba(240, 232, 230, 0.09)" offset="0.66"></stop></linearGradient><linearGradient x1="100%" y1="100%" x2="0%" y2="0%" id="SvgjsLinearGradient1971"><stop stop-color="rgba(240, 232, 230, 0.09)" offset="0"></stop><stop stop-opacity="0" stop-color="rgba(240, 232, 230, 0.09)" offset="0.66"></stop></linearGradient></defs></svg>