<svg width="36" height="36" viewBox="0 0 36 36" fill="none" xmlns="http://www.w3.org/2000/svg">
<path d="M12.794 21.5924C13.4834 20.8531 14.317 20.2629 15.2434 19.8582C16.1697 19.4534 17.1699 19.2431 18.1808 19.2396C19.1917 19.2361 20.1924 19.4398 21.1216 19.838C22.0507 20.2362 22.8887 20.8205 23.5833 21.555M9.54793 17.0846C10.651 15.9016 11.9848 14.9573 13.4669 14.3098C14.9491 13.6622 16.5479 13.3254 18.1653 13.3197C19.7827 13.3141 21.3834 13.6401 22.87 14.2772C24.3566 14.9144 25.6977 15.8495 26.809 17.0247M5.2179 13.0478C6.87252 11.2735 8.87315 9.85696 11.0964 8.88566C13.3196 7.91436 15.7171 7.40839 18.1433 7.39992C20.5694 7.39145 22.9732 7.88038 25.2032 8.83614C27.4331 9.7919 29.444 11.1953 31.111 12.9581M18.2065 28.1193C17.3892 28.1193 16.7266 27.4567 16.7266 26.6394C16.7266 25.822 17.3892 25.1594 18.2065 25.1594C19.0239 25.1594 19.6865 25.822 19.6865 26.6394C19.6865 27.4567 19.0239 28.1193 18.2065 28.1193Z" stroke="white" stroke-width="2.95992" stroke-linecap="round" stroke-linejoin="round"/>
</svg>
